JAZZ A FILM by KEN BURNS
Episode 5 " "Swing & Pure Pleasure" (1935 to 1937) of 10 Episodes
Label: PDS
Released:2001
Duration: 1hr 26mn
Language: English
Format: Mpeg4



1935 was the year that swing became the most popular music in the country and that the king of swing, Benny Goodman, became a matinee idol. Americans, stifled by the Depression, seemed determined to dance their troubles away. "Swing: Pure Pleasure" follows the continuing careers of Goodman, Artie Shaw, and Armstrong, and the discovery of Billy Holiday. 

Credits
Ken Burns—Director/Producer/Cinematography
Lynn Novick--Producer
Geoffrey C. Ward—Screenwriter 
Buddy Squires—Cinematography 
Keith David—Narrator
Paul Barnes—Film Editor

Episode 1
Episode 2
[url]
Episode 3
Episode 4

Episodes 6 -10 to follow


General
Complete name                    : F:\MUSIC UP\Jazz a Film by Ken Burns Episode 5(mpeg)(jazz
Format                           : MPEG-4
File size                        : 691 MiB
Duration                         : 1h 26mn
Overall bit rate                 : 1 114 Kbps

Video
ID                               : 1
Format                           : MPEG-4 Visual
Format profile                   : Advanced Simple@L5
Format settings, BVOP            : Yes
Format settings, QPel            : No
Format settings, GMC             : No warppoints
Format settings, Matrix          : Default (H.263)
Codec ID                         : 20
Bit rate mode                    : Variable
Bit rate                         : 1 032 Kbps
Maximum bit rate                 : 3 780 Kbps
Width                            : 496 pixels
Height                           : 368 pixels
Display aspect ratio             : 4:3
Frame rate mode                  : Constant
Frame rate                       : 29.970 fps
Bit depth                        : 8 bits
Scan type                        : Progressive
Bits/(Pixel*Frame)               : 0.189
Stream size                      : 641 MiB (93%)
Language                         : English

Audio
ID                               : 2
Format/Info                      : Advanced Audio Codec
Format version                   : Version 4
Codec ID                         : 40
Bit rate                         : 74.2 Kbps Variable
Maximum bit rate                 : 128 Kbps
Channel(s)                       : 2 channels
Channel positions                : Front: L R
Sampling rate                    : 44.1 KHz
Stream size                      : 46.0 MiB (7%)

